<?xml version="1.0" encoding="iso-8859-1"?>
<!-- Generator: Adobe Illustrator 19.0.0, SVG Export Plug-In . SVG Version: 6.00 Build 0)  -->
<svg version="1.1" id="Capa_1" xmlns="http://www.w3.org/2000/svg" xmlns:xlink="http://www.w3.org/1999/xlink" x="0px" y="0px"
	 viewBox="0 0 512 512" style="enable-background:new 0 0 512 512;" xml:space="preserve">
<path style="fill:#B34F03;" d="M452,181c0,41.4-27.001,75-60,75l-12.001,26.999H155.7L135,256v-2.401c0.3,0,0.3-0.3,0.601-0.3
	l4.499-17.401l22.5-2.399C173.101,220,180,201.4,180,181c0-34.801-19.2-64.2-45-72.601V106h257c24.6,0,45.901,18.6,54.901,45
	L429.5,163.599L452,181z"/>
<path style="fill:#913F02;" d="M452,181c0,41.4-27.001,75-60,75l-12.001,26.999H155.7L135,256v-2.401c0.3,0,0.3-0.3,0.601-0.3
	l4.499-17.401l22.5-2.399C173.101,220,180,201.4,180,181H452z"/>
<g>
	<rect x="178.8" y="181" style="fill:#6F2E01;" width="106.2" height="30"/>
	<path style="fill:#6F2E01;" d="M452,181H347v-30h99.901C450.2,160.3,452,170.499,452,181z"/>
</g>
<path style="fill:#FED2A4;" d="M195,181c0,41.4-27.001,75-60,75s-60-33.6-60-75s27.001-75,60-75S195,139.6,195,181z"/>
<path style="fill:#FFBD86;" d="M195,181c0,41.4-27.001,75-60,75s-60-33.6-60-75H195z"/>
<rect x="120" y="151" style="fill:#F6A96C;" width="30" height="60"/>
<rect x="120" y="181" style="fill:#EA9B58;" width="30" height="30"/>
<path style="fill:#B34F03;" d="M512,331c0,41.4-27.001,75-60,75H256v-2.401c25.8-8.399,45-37.8,45-72.599
	c0-18.3-5.4-35.101-14.099-48.001c-7.8-11.999-18.602-20.7-30.901-24.6V256h196c24.6,0,45.901,18.6,54.901,45L489.5,316L512,331z"/>
<path style="fill:#913F02;" d="M512,331c0,41.4-27.001,75-60,75H256v-2.401c25.8-8.399,45-37.8,45-72.599H512z"/>
<path style="fill:#6F2E01;" d="M512,331H392v-30h114.901C510.2,310.3,512,320.499,512,331z"/>
<path style="fill:#B34F03;" d="M211,331c0,34.799,19.2,64.2,45,72.599V406H60v-2.401c25.8-8.399,45-37.8,45-72.599
	c0-34.801-19.2-64.2-45-72.601V256h196v2.399C230.2,266.8,211,296.199,211,331z"/>
<path style="fill:#913F02;" d="M256,403.599V406H60v-2.401c25.8-8.399,45-37.8,45-72.599h106C211,365.799,230.2,395.2,256,403.599z"
	/>
<path style="fill:#FED2A4;" d="M120,331c0,41.4-27.001,75-60,75S0,372.4,0,331s27.001-75,60-75S120,289.6,120,331z"/>
<path style="fill:#FFBD86;" d="M0,331h120c0,41.4-27.001,75-60,75S0,372.4,0,331z"/>
<path style="fill:#FED2A4;" d="M316,331c0,41.4-27.001,75-60,75s-60-33.6-60-75s27.001-75,60-75S316,289.6,316,331z"/>
<rect x="299.8" y="331" style="fill:#6F2E01;" width="61.2" height="30"/>
<rect x="45" y="301" style="fill:#F6A96C;" width="30" height="60"/>
<rect x="45" y="331" style="fill:#EA9B58;" width="30" height="30"/>
<path style="fill:#FFBD86;" d="M316,331c0,41.4-27.001,75-60,75s-60-33.6-60-75H316z"/>
<rect x="241" y="301" style="fill:#F6A96C;" width="30" height="60"/>
<rect x="241" y="331" style="fill:#EA9B58;" width="30" height="30"/>
<g>
</g>
<g>
</g>
<g>
</g>
<g>
</g>
<g>
</g>
<g>
</g>
<g>
</g>
<g>
</g>
<g>
</g>
<g>
</g>
<g>
</g>
<g>
</g>
<g>
</g>
<g>
</g>
<g>
</g>
</svg>
