<?xml version="1.0" encoding="iso-8859-1"?>
<!-- Generator: Adobe Illustrator 19.0.0, SVG Export Plug-In . SVG Version: 6.00 Build 0)  -->
<svg version="1.1" id="Layer_1" xmlns="http://www.w3.org/2000/svg" xmlns:xlink="http://www.w3.org/1999/xlink" x="0px" y="0px"
	 viewBox="0 0 512 512" style="enable-background:new 0 0 512 512;" xml:space="preserve">
<rect x="12" y="128.73" style="fill:#FFFFFF;" width="487.996" height="311.871"/>
<path style="fill:#CCCCCC;" d="M488,140.727V428.6H24V140.727H488 M512,116.727H0v335.871h512V116.727z"/>
<path style="fill:#E21B1B;" d="M480.344,148.135v273.056H31.656V148.135H480.344 M488.343,140.135H23.656V429.19h464.688V140.135z"
	/>
<path d="M230.336,118.511V81.791c1.019-13.206,12.443-23.152,25.664-22.344c13.223-0.808,24.649,9.144,25.664,22.352v36.72
	L230.336,118.511z"/>
<g>
	<rect x="269.428" y="220.322" style="fill:#999999;" width="165.143" height="12"/>
	<rect x="269.428" y="278.988" style="fill:#999999;" width="165.143" height="12"/>
	<rect x="269.428" y="336.991" style="fill:#999999;" width="165.143" height="12"/>
</g>
<circle style="fill:#D6D6D6;" cx="151.171" cy="235.725" r="46.568"/>
<path style="fill:#666666;" d="M224.904,379.967c-0.8-44.479-33.472-80.28-73.728-80.28s-72.936,35.8-73.736,80.28L224.904,379.967
	L224.904,379.967z"/>
<g>
</g>
<g>
</g>
<g>
</g>
<g>
</g>
<g>
</g>
<g>
</g>
<g>
</g>
<g>
</g>
<g>
</g>
<g>
</g>
<g>
</g>
<g>
</g>
<g>
</g>
<g>
</g>
<g>
</g>
</svg>
