<?xml version="1.0" encoding="iso-8859-1"?>
<!-- Generator: Adobe Illustrator 19.0.0, SVG Export Plug-In . SVG Version: 6.00 Build 0)  -->
<svg version="1.1" id="Layer_1" xmlns="http://www.w3.org/2000/svg" xmlns:xlink="http://www.w3.org/1999/xlink" x="0px" y="0px"
	 viewBox="0 0 512 512" style="enable-background:new 0 0 512 512;" xml:space="preserve">
<g transform="translate(1 1)">
	<path style="fill:#FFFFFF;" d="M39.107,84.333H203.8v40.107c0,5.973,5.12,11.093,11.093,11.093h54.613l2.56,290.133H39.107
		c-17.067,0-31.573-13.653-31.573-31.573V115.907C7.533,97.987,21.187,84.333,39.107,84.333"/>
	<path style="fill:#CCCCCC;" d="M470.893,84.333H306.2v40.107c0,5.973-5.12,11.093-11.093,11.093h-54.613l-2.56,290.133h232.96
		c17.067,0,31.573-13.653,31.573-31.573V115.907C502.467,97.987,488.813,84.333,470.893,84.333"/>
	<path style="fill:#E2E3E5;" d="M445.293,84.333H306.2H203.8H64.707c-17.92,0-31.573,13.653-31.573,31.573v278.187
		c0,17.067,13.653,31.573,31.573,31.573h380.587c17.067,0,31.573-13.653,31.573-31.573V115.907
		C476.867,97.987,463.213,84.333,445.293,84.333"/>
	<path style="fill:#F0F0F0;" d="M188.44,316.44l-32.427-16.213c-2.56-0.853-3.413-3.413-3.413-5.973v-10.24
		c16.213-6.827,25.6-21.333,30.72-38.4c6.827-2.56,11.947-8.533,11.947-16.213v-8.533c0-6.827-3.413-11.947-9.387-15.36
		c-3.413-31.573-24.747-44.373-58.88-44.373c-1.707,0-3.413,0-5.12,0c-11.947,0.853-23.04-0.853-33.28-7.68
		c-4.267-2.56-7.68-5.973-9.387-8.533c-0.853-1.707-2.56-0.853-2.56,0.853c0,3.413,0.853,6.827,1.707,10.24
		c2.56,14.507,0.853,11.947-4.267,25.6c-3.413,7.68-5.12,15.36-5.973,23.893c-5.973,3.413-9.387,9.387-9.387,15.36v8.533
		c0,7.68,5.12,13.653,11.947,16.213c4.267,17.067,14.507,30.72,30.72,38.4v9.387c0,2.56-1.707,5.12-3.413,5.973l-33.28,16.213
		c-8.533,5.12-14.507,14.507-14.507,24.747v7.68v3.413c0,9.387,34.133,14.507,76.8,14.507s76.8-5.12,76.8-14.507v-3.413v-6.827
		C203.8,330.093,197.827,320.707,188.44,316.44"/>
	<g>
		<path style="fill:#B6B6B6;" d="M475.16,442.733H34.84C15.213,442.733-1,426.52-1,406.893V103.107
			c0-19.627,16.213-35.84,35.84-35.84h440.32c19.627,0,35.84,16.213,35.84,35.84v303.787C511,426.52,494.787,442.733,475.16,442.733
			z M34.84,84.333c-10.24,0-18.773,8.533-18.773,18.773v303.787c0,10.24,8.533,18.773,18.773,18.773h440.32
			c10.24,0,18.773-8.533,18.773-18.773V103.107c0-10.24-8.533-18.773-18.773-18.773H34.84z"/>
		<path style="fill:#B6B6B6;" d="M127,374.467c-85.333,0-85.333-16.213-85.333-23.04v-11.093c0-13.653,7.68-25.6,18.773-32.427
			l32.427-16.213v-2.56c-13.653-7.68-23.893-20.48-29.013-37.547C55.32,247.32,50.2,238.787,50.2,229.4v-8.533
			c0-7.68,3.413-15.36,9.387-19.627c0.853-7.68,3.413-15.36,5.973-22.187c0.853-3.413,2.56-5.12,3.413-7.68
			c2.56-5.12,2.56-5.12,0.853-13.653c-0.853-4.267-1.707-7.68-1.707-11.093c-0.853-4.267,1.707-8.533,5.973-10.24
			c4.267-1.707,9.387-0.853,11.947,2.56c1.707,2.56,4.267,5.12,7.68,6.827c9.387,6.827,20.48,6.827,28.16,6.827
			c1.707,0,3.413,0,5.12,0c39.253,0,61.44,16.213,66.56,48.64c5.973,5.12,10.24,11.947,10.24,19.627v8.533
			c0,9.387-5.12,17.92-13.653,22.187c-5.12,17.067-15.36,29.867-29.013,37.547v3.413l30.72,16.213
			c12.8,5.973,20.48,18.773,20.48,32.427v10.24C212.333,358.253,212.333,374.467,127,374.467z M58.733,349.72
			c5.12,3.413,27.307,7.68,68.267,7.68s63.147-4.267,68.267-7.68v-8.533c0-7.68-4.267-14.507-11.093-17.067l0,0L152.6,307.053
			c-5.12-2.56-8.533-7.68-8.533-13.653v-10.24c0-3.413,1.707-6.827,5.12-7.68c12.8-5.973,21.333-16.213,25.6-32.427
			c0.853-2.56,2.56-5.12,5.973-5.973c3.413-0.853,5.973-4.267,5.973-7.68v-8.533c0-3.413-1.707-5.973-4.267-7.68
			s-4.267-3.413-4.267-6.827c-3.413-25.6-18.773-37.547-50.347-37.547c-1.707,0-2.56,0-4.267,0
			c-12.8,0.853-24.747-1.707-34.987-6.827c0.853,6.827,0,9.387-3.413,16.213c-0.853,1.707-1.707,3.413-2.56,6.827
			c-2.56,6.827-4.267,13.653-5.12,22.187c0,2.56-1.707,5.12-4.267,6.827c-4.267,0.853-5.973,3.413-5.973,6.827v8.533
			c0,3.413,2.56,6.827,5.973,7.68c2.56,0.853,5.12,3.413,5.973,5.973c4.267,16.213,12.8,27.307,25.6,32.427
			c3.413,1.707,5.12,4.267,5.12,7.68v9.387c0,5.973-3.413,11.093-8.533,13.653l-32.427,17.067
			c-5.973,3.413-10.24,10.24-10.24,17.067V349.72z M73.24,150.04L73.24,150.04L73.24,150.04z M85.187,144.92L85.187,144.92
			L85.187,144.92z"/>
		<path style="fill:#B6B6B6;" d="M340.333,195.267H255c-5.12,0-8.533-3.413-8.533-8.533c0-5.12,3.413-8.533,8.533-8.533h85.333
			c5.12,0,8.533,3.413,8.533,8.533C348.867,191.853,345.453,195.267,340.333,195.267z"/>
		<path style="fill:#B6B6B6;" d="M383,195.267h-8.533c-5.12,0-8.533-3.413-8.533-8.533c0-5.12,3.413-8.533,8.533-8.533H383
			c5.12,0,8.533,3.413,8.533,8.533C391.533,191.853,388.12,195.267,383,195.267z"/>
		<path style="fill:#B6B6B6;" d="M263.533,340.333H255c-5.12,0-8.533-3.413-8.533-8.533s3.413-8.533,8.533-8.533h8.533
			c5.12,0,8.533,3.413,8.533,8.533S268.653,340.333,263.533,340.333z"/>
		<path style="fill:#B6B6B6;" d="M314.733,340.333h-17.067c-5.12,0-8.533-3.413-8.533-8.533s3.413-8.533,8.533-8.533h17.067
			c5.12,0,8.533,3.413,8.533,8.533S319.853,340.333,314.733,340.333z"/>
		<path style="fill:#B6B6B6;" d="M357.4,340.333h-8.533c-5.12,0-8.533-3.413-8.533-8.533s3.413-8.533,8.533-8.533h8.533
			c5.12,0,8.533,3.413,8.533,8.533S362.52,340.333,357.4,340.333z"/>
		<path style="fill:#B6B6B6;" d="M408.6,340.333h-17.067c-5.12,0-8.533-3.413-8.533-8.533s3.413-8.533,8.533-8.533H408.6
			c5.12,0,8.533,3.413,8.533,8.533S413.72,340.333,408.6,340.333z"/>
	</g>
	<g>
		<path style="fill:#B6B6B6;" d="M442.733,246.467H255c-5.12,0-8.533-3.413-8.533-8.533c0-5.12,3.413-8.533,8.533-8.533h187.733
			c5.12,0,8.533,3.413,8.533,8.533C451.267,243.053,447.853,246.467,442.733,246.467z"/>
		<path style="fill:#B6B6B6;" d="M442.733,297.667H255c-5.12,0-8.533-3.413-8.533-8.533c0-5.12,3.413-8.533,8.533-8.533h187.733
			c5.12,0,8.533,3.413,8.533,8.533C451.267,294.253,447.853,297.667,442.733,297.667z"/>
	</g>
</g>
<g>
</g>
<g>
</g>
<g>
</g>
<g>
</g>
<g>
</g>
<g>
</g>
<g>
</g>
<g>
</g>
<g>
</g>
<g>
</g>
<g>
</g>
<g>
</g>
<g>
</g>
<g>
</g>
<g>
</g>
</svg>
