<?xml version="1.0" encoding="iso-8859-1"?>
<!-- Generator: Adobe Illustrator 19.0.0, SVG Export Plug-In . SVG Version: 6.00 Build 0)  -->
<svg version="1.1" id="Layer_1" xmlns="http://www.w3.org/2000/svg" xmlns:xlink="http://www.w3.org/1999/xlink" x="0px" y="0px"
	 viewBox="0 0 511.999 511.999" style="enable-background:new 0 0 511.999 511.999;" xml:space="preserve">
<g>
	<g>
		<g>
			<path d="M460.803,65.26H51.197C22.967,65.26,0,88.228,0,116.457v279.084c0,28.23,22.967,51.197,51.197,51.197h409.605
				c28.23,0,51.197-22.967,51.197-51.197V116.457C512,88.228,489.033,65.26,460.803,65.26z M460.803,409.568H51.197
				c-7.733,0-14.025-6.292-14.025-14.025V116.457c0-7.733,6.292-14.025,14.025-14.025h409.605c7.733,0,14.025,6.292,14.025,14.025
				v279.086h0.001C474.828,403.276,468.536,409.568,460.803,409.568z"/>
			<path d="M237.413,130.854H81.291c-10.264,0-18.586,8.322-18.586,18.586v213.119c0,10.264,8.322,18.586,18.586,18.586h156.122
				c10.264,0,18.586-8.322,18.586-18.586V149.44C255.999,139.175,247.679,130.854,237.413,130.854z M218.827,312.423
				c-14.122-16.437-35.043-26.863-58.413-26.863c-24.572,0-46.439,11.523-60.537,29.446v-146.98h118.95V312.423z"/>
			<path d="M439.004,130.854h-147.18c-10.264,0-18.586,8.322-18.586,18.586v66.561c0,10.264,8.322,18.586,18.586,18.586h147.18
				c10.264,0,18.586-8.322,18.586-18.586V149.44C457.59,139.175,449.269,130.854,439.004,130.854z M420.418,197.415H310.41v-29.389
				h110.008V197.415z"/>
			<path d="M439.004,295.649h-147.18c-10.264,0-18.586,8.322-18.586,18.586s8.322,18.586,18.586,18.586h147.18
				c10.264,0,18.586-8.322,18.586-18.586S449.269,295.649,439.004,295.649z"/>
			<path d="M439.004,343.973h-147.18c-10.264,0-18.586,8.322-18.586,18.586s8.322,18.586,18.586,18.586h147.18
				c10.264,0,18.586-8.322,18.586-18.586S449.269,343.973,439.004,343.973z"/>
			<path d="M439.004,247.326h-147.18c-10.264,0-18.586,8.322-18.586,18.586c0,10.264,8.322,18.586,18.586,18.586h147.18
				c10.264,0,18.586-8.322,18.586-18.586C457.59,255.648,449.269,247.326,439.004,247.326z"/>
			<circle cx="159.356" cy="237.355" r="27.205"/>
		</g>
	</g>
</g>
<g>
</g>
<g>
</g>
<g>
</g>
<g>
</g>
<g>
</g>
<g>
</g>
<g>
</g>
<g>
</g>
<g>
</g>
<g>
</g>
<g>
</g>
<g>
</g>
<g>
</g>
<g>
</g>
<g>
</g>
</svg>
